
<svg width="100%" height="100%" viewBox="0 0 1080 1080" version="1.1" xmlns="http://www.w3.org/2000/svg" xmlns:xlink="http://www.w3.org/1999/xlink" xml:space="preserve" xmlns:serif="http://www.serif.com/" style="fill-rule:evenodd;clip-rule:evenodd;stroke-linejoin:round;stroke-miterlimit:2;">
    <g transform="matrix(1.27053,0,0,1.27053,-60.3975,-18.183)">
        <g transform="matrix(5.86654,0,0,5.86654,202.589,335.662)">
            <path d="M0,8.922L-17.844,8.922C-20.308,8.922 -22.305,6.925 -22.305,4.461C-22.305,1.997 -20.308,0 -17.844,0L0,0C2.464,0 4.461,1.997 4.461,4.461C4.461,6.925 2.464,8.922 0,8.922" style="fill:rgb(5,129,83);fill-rule:nonzero;"/>
        </g>
        <g transform="matrix(5.86654,0,0,5.86654,245.414,126.294)">
            <path d="M0,8.923L-4.866,8.923C-7.33,8.923 -9.327,6.925 -9.327,4.462C-9.327,1.998 -7.33,0 -4.866,0L0,0C2.464,0 4.461,1.998 4.461,4.462C4.461,6.925 2.464,8.923 0,8.923" style="fill:rgb(5,129,83);fill-rule:nonzero;"/>
        </g>
        <g transform="matrix(5.86654,0,0,5.86654,419.966,580.011)">
            <path d="M0,6.762C-1.868,6.762 -3.381,5.249 -3.381,3.381C-3.381,1.513 -1.868,0 0,0C1.868,0 3.381,1.513 3.381,3.381C3.381,5.249 1.868,6.762 0,6.762M0,-7.607C-6.068,-7.607 -10.988,-2.688 -10.988,3.381C-10.988,9.45 -6.068,14.369 0,14.369C6.069,14.369 10.988,9.45 10.988,3.381C10.988,-2.688 6.069,-7.607 0,-7.607" style="fill:rgb(224,161,8);fill-rule:nonzero;"/>
        </g>
        <g transform="matrix(5.86654,0,0,5.86654,682.775,580.011)">
            <path d="M0,6.762C-1.868,6.762 -3.381,5.249 -3.381,3.381C-3.381,1.513 -1.868,0 0,0C1.868,0 3.381,1.513 3.381,3.381C3.381,5.249 1.868,6.762 0,6.762M0,-7.607C-6.069,-7.607 -10.988,-2.688 -10.988,3.381C-10.988,9.45 -6.069,14.369 0,14.369C6.068,14.369 10.987,9.45 10.987,3.381C10.987,-2.688 6.068,-7.607 0,-7.607" style="fill:rgb(224,161,8);fill-rule:nonzero;"/>
        </g>
        <g transform="matrix(5.86654,0,0,5.86654,671.466,374.427)">
            <path d="M0,-22.466C-1.513,-12.534 -10.117,-4.894 -20.472,-4.894C-30.91,-4.894 -39.565,-12.661 -40.977,-22.711C-42.574,-23.32 -43.715,-24.85 -43.715,-26.658C-43.715,-28.991 -41.822,-30.885 -39.489,-30.885C-37.156,-30.885 -35.263,-28.991 -35.263,-26.658C-35.263,-25.357 -35.863,-24.207 -36.793,-23.43C-35.728,-15.366 -28.822,-9.12 -20.472,-9.12C-12.356,-9.12 -5.612,-15.02 -4.251,-22.745C-5.367,-23.506 -6.103,-24.782 -6.103,-26.237C-6.103,-28.569 -4.209,-30.462 -1.876,-30.462C0.457,-30.462 2.351,-28.569 2.351,-26.237C2.351,-24.579 1.387,-23.159 0,-22.466M-39.522,9.931C-40.334,10.734 -41.45,11.233 -42.684,11.233L-49.1,11.233C-51.567,11.233 -53.563,9.238 -53.563,6.779C-53.563,5.545 -53.063,4.429 -52.252,3.618C-51.449,2.814 -50.333,2.316 -49.1,2.316L-42.684,2.316C-40.216,2.316 -38.221,4.31 -38.221,6.779C-38.221,8.013 -38.72,9.12 -39.522,9.931M-37.114,-42.616C-35.753,-50.342 -29.008,-56.242 -20.894,-56.242C-12.67,-56.242 -5.849,-50.182 -4.632,-42.296L-36.7,-42.296C-36.826,-42.405 -36.971,-42.515 -37.114,-42.616M26.354,27.546L13.093,-35.415C12.256,-39.422 8.715,-42.296 4.615,-42.296L0.33,-42.296C0.102,-42.44 -0.135,-42.558 -0.389,-42.651C-1.8,-52.7 -10.455,-60.468 -20.894,-60.468C-31.248,-60.468 -39.853,-52.827 -41.365,-42.896C-41.687,-42.736 -41.991,-42.532 -42.262,-42.296L-59.647,-42.296C-62.107,-42.296 -64.11,-40.301 -64.11,-37.833C-64.11,-35.373 -62.107,-33.37 -59.647,-33.37L-53.799,-33.37C-51.331,-33.37 -49.336,-31.375 -49.336,-28.915C-49.336,-27.682 -49.835,-26.566 -50.646,-25.763C-51.449,-24.951 -52.564,-24.452 -53.799,-24.452L-75.868,-24.452C-78.336,-24.452 -80.331,-22.458 -80.331,-19.989C-80.331,-17.53 -78.336,-15.527 -75.868,-15.527L-53.968,-15.527C-51.508,-15.527 -49.505,-13.532 -49.505,-11.072C-49.505,-9.839 -50.004,-8.723 -50.815,-7.911C-51.627,-7.109 -52.742,-6.61 -53.968,-6.61L-66.14,-6.61C-68.599,-6.61 -70.594,-4.607 -70.594,-2.147C-70.594,0.312 -68.599,2.316 -66.14,2.316L-62.826,2.316C-60.392,2.349 -58.431,4.336 -58.431,6.779C-58.431,8.013 -58.93,9.12 -59.741,9.931C-60.544,10.734 -61.659,11.233 -62.894,11.233L-83.171,11.233C-85.631,11.233 -87.625,13.236 -87.625,15.696C-87.625,18.164 -85.631,20.159 -83.171,20.159L-62.057,20.159C-59.589,20.159 -57.594,22.154 -57.594,24.622C-57.594,25.847 -58.093,26.963 -58.896,27.774C-59.707,28.577 -60.823,29.076 -62.057,29.076L-78.142,29.076C-80.602,29.076 -82.604,31.079 -82.604,33.539C-82.604,36.007 -80.602,38.002 -78.142,38.002L-57.23,38.002C-57.011,30.26 -50.663,24.055 -42.87,24.055C-35.077,24.055 -28.729,30.26 -28.51,38.002L-12.434,38.002C-12.213,30.26 -5.865,24.055 1.928,24.055C9.721,24.055 16.068,30.26 16.288,38.002L17.868,38.002C23.371,38.002 27.487,32.939 26.354,27.546" style="fill:rgb(5,129,83);fill-rule:nonzero;"/>
        </g>
    </g>
    <g transform="matrix(0.904324,0,0,0.904324,-87.5754,196.572)">
        <text x="217.75px" y="960.782px" style="font-family:'ArialMT', 'Arial', sans-serif;font-size:66.667px;fill:rgb(51,51,51);">M<tspan x="294.64px 360.462px 429.962px 495.784px 535.662px 601.484px 666.102px 705.98px 775.48px 841.302px 907.124px 976.624px 1046.12px 1086px 1151.83px " y="960.782px 960.782px 960.782px 960.782px 960.782px 960.782px 960.782px 960.782px 960.782px 960.782px 960.782px 960.782px 960.782px 960.782px 960.782px ">ADE BY NASCRIPT</tspan></text>
    </g>
    <g transform="matrix(1.27532,0,0,1.27532,-193.316,-338.622)">
        <text x="230.968px" y="1032.07px" style="font-family:'Arial-Black', 'Arial', sans-serif;font-weight:900;font-size:125px;fill:rgb(224,161,8);">N<tspan x="331.228px 425.813px " y="1032.07px 1032.07px ">AS</tspan></text>
        <text x="552.481px" y="1032.07px" style="font-family:'Arial-Black', 'Arial', sans-serif;font-weight:900;font-size:125px;fill:rgb(5,129,83);"><tspan x="552.481px 640.107px 741.589px 843.07px " y="1032.07px 1032.07px 1032.07px 1032.07px ">SHOP</tspan></text>
    </g>
</svg>
